PathFileType	4	(X/Y/Z)	/Users/visionmauri/Downloads/Videos/OAW09-top_Sports2D/OAW09-top_Sports2D_px_person00.trc
DataRate	CameraRate	NumFrames	NumMarkers	Units	OrigDataRate	OrigDataStartFrame	OrigNumFrames
30.0	30.0	10	22	m	30.0	258	2065
Frame#	Time	Hip			RHip			RKnee			RAnkle			RBigToe			RSmallToe			RHeel			LHip			LKnee			LAnkle			LBigToe			LSmallToe			LHeel			Neck			Head			Nose			RShoulder			RElbow			RWrist			LShoulder			LElbow			LWrist			
		X1	Y1	Z1	X2	Y2	Z2	X3	Y3	Z3	X4	Y4	Z4	X5	Y5	Z5	X6	Y6	Z6	X7	Y7	Z7	X8	Y8	Z8	X9	Y9	Z9	X10	Y10	Z10	X11	Y11	Z11	X12	Y12	Z12	X13	Y13	Z13	X14	Y14	Z14	X15	Y15	Z15	X16	Y16	Z16	X17	Y17	Z17	X18	Y18	Z18	X19	Y19	Z19	X20	Y20	Z20	X21	Y21	Z21	X22	Y22	Z22
258	8.604166666666666	528.1923780026017	693.7435550379047	0.0	505.8945822582651	696.2576699169106	0.0	509.69260832027294	773.6327818069057	0.0	514.7094598030347	831.8487041283669	0.0	517.3650582772216	860.6385553933055	0.0	506.6520191446415	856.7699210155254	0.0	516.387134182866	837.4473385901798	0.0	549.2853541694037	693.2917467609842	0.0	540.9505227054188	780.1304981447288	0.0	533.7168053085246	863.2898870282295	0.0	530.8847281510821	892.2918980852787	0.0	542.6042415314497	889.7070903816248	0.0	529.9144006061998	873.9030184508526	0.0	526.0034746106842	597.1450425069551	0.0	535.6132277614905	562.4826069355946	0.0	532.789159233848	603.2752001560041	0.0	484.00995035992497	596.8705621767549	0.0	467.81943722310007	655.7939220485802	0.0	473.1353680217408	698.6694574736701	0.0	570.9408799397635	594.103983222859	0.0	579.2834938002628	652.7764487196738	0.0	575.7618903859756	700.7644475207163	0.0
259	8.6375161498708	528.6436110863797	693.351575888358	0.0	506.0127068791612	695.9433475094712	0.0	508.19703707224204	774.2075584779325	0.0	513.6589796176645	829.4908234693298	0.0	516.5015053161848	859.8395642692135	0.0	505.4102582361332	855.6333339290362	0.0	515.6157259974582	834.1721666069868	0.0	549.6935918636465	693.523709046761	0.0	541.4351733893874	781.1646271716364	0.0	533.6795643643345	865.0285149855591	0.0	530.6264508735035	892.6146293214025	0.0	542.6041326135717	890.1048634927558	0.0	529.8343517139715	875.1695355419655	0.0	526.607159905993	596.6960996558643	0.0	535.4521867039479	562.2709997932916	0.0	533.1483798772709	603.233042910147	0.0	484.210333550227	596.1682504254982	0.0	468.348638641996	657.303598279516	0.0	472.86678050207826	701.8021479080447	0.0	571.9633760725212	593.2586136485253	0.0	580.493916024728	653.2704318673855	0.0	577.5813333649679	702.313639892809	0.0
260	8.670865633074934	528.8578711495819	693.5315588908347	0.0	505.69679623380875	695.6992744925603	0.0	506.8744841764358	775.3035536193822	0.0	512.7995631615122	826.6632848486064	0.0	514.9818583583225	858.1037211443956	0.0	503.5262820502234	853.42215160349	0.0	514.9221605943391	830.8267666529903	0.0	550.0697752546729	694.3652692481718	0.0	541.3681130564846	782.3228367960475	0.0	533.6963034993768	866.605961118342	0.0	530.2234803228139	892.2581724344707	0.0	542.3844596694321	889.8378614138988	0.0	529.884808344473	876.4079537583722	0.0	527.4128300639196	595.6999437001376	0.0	535.2089790549858	561.7513299716649	0.0	533.3291095314587	603.1328174500813	0.0	484.605109861247	595.2216287125709	0.0	468.5547280501551	657.9044219797584	0.0	472.3999385294024	704.5089061559854	0.0	572.790117021756	592.4839049170224	0.0	582.1606859123655	654.1324410359963	0.0	579.7615313684498	704.0179434220804	0.0
261	8.704215116279068	528.8900900492579	694.2129437984452	0.0	505.012668603585	695.689253297323	0.0	505.9696184727455	777.0725577235444	0.0	512.127866385369	824.7255542185578	0.0	512.7977614448728	857.4057510539794	0.0	501.0883192497548	852.2702230444953	0.0	514.2113402599967	828.138423579511	0.0	550.5329367192834	695.2755399449383	0.0	541.1318439145849	783.3431481096974	0.0	533.7377159248346	867.8225160590925	0.0	529.8859184177558	891.9297739599317	0.0	542.1853294715245	889.5135054689612	0.0	529.8202339564804	877.8052023302993	0.0	528.2285457033438	594.751727031176	0.0	535.6482544786259	561.1742944282331	0.0	533.4319138262783	603.0364963919004	0.0	485.0756874664843	593.9010962027821	0.0	468.6166442524486	658.0039996948365	0.0	471.88334958163733	706.5703603012481	0.0	573.4792832209909	591.7597286576014	0.0	584.073831745243	654.9499962109952	0.0	582.158330953695	705.6508962247954	0.0
262	8.737564599483203	528.9260784880165	694.7700734302913	0.0	504.6611171727954	695.729448056443	0.0	505.5268648762206	778.7496058840836	0.0	511.75705003761726	824.6958309631041	0.0	510.0089231201388	859.3728177214058	0.0	498.3711151598832	853.761256677342	0.0	513.7651076826878	827.5291478569931	0.0	550.9360966384908	695.5657759509655	0.0	541.0737379898794	783.9914110106283	0.0	533.7134482738202	868.1465430528241	0.0	529.7248315013303	892.0568546787102	0.0	542.2079937871982	889.6198829901049	0.0	529.6993015446955	878.7529365642184	0.0	528.6323151883408	594.7811532961092	0.0	536.3568505985669	560.3308452089949	0.0	533.4177844702964	602.601941120228	0.0	485.1333754062902	592.7634819212841	0.0	468.64668331733833	658.1488437026698	0.0	471.2385745728696	708.4892016574847	0.0	574.1191970977509	591.0546236501267	0.0	586.0477120165737	655.1022601485038	0.0	584.786788720478	706.6298911899252	0.0
263	8.770914082687337	529.1097004940241	695.2689985013507	0.0	504.95531282404704	695.9618541740599	0.0	505.65677959924994	779.7803250163236	0.0	511.3172582868425	827.7277943374229	0.0	507.1070434448377	864.3400608464252	0.0	495.81862183735603	858.4554730319421	0.0	513.4381431122973	831.1627203516747	0.0	551.1190748110737	695.5886530278975	0.0	541.312355798674	784.4974170356547	0.0	533.6727698711985	867.5668268910775	0.0	529.6631347167146	892.6295411486192	0.0	542.3041556128053	890.2994341177442	0.0	529.8091216340483	878.661143513659	0.0	528.6149457756284	595.385468658567	0.0	536.0594872015529	558.9228370584124	0.0	533.0888855789935	601.7972757449942	0.0	484.546526564394	592.7609033972712	0.0	468.6564835089761	658.7434949571259	0.0	470.2307331735311	710.5237438782601	0.0	574.7274591722803	590.8762521572361	0.0	588.0043399008247	654.3913352866041	0.0	587.7221660576637	706.7631364310153	0.0
264	8.804263565891471	529.4230489957588	696.3990706296031	0.0	505.42325050807733	696.9506034767865	0.0	506.1593342669907	780.7487481601199	0.0	510.2819385329482	834.7011467234095	0.0	505.0063499290005	871.7616804596803	0.0	493.9002925941423	866.0143692859685	0.0	512.7700357143995	840.0840774455263	0.0	551.1877594989745	696.3715486468913	0.0	541.7317651316184	785.502359946337	0.0	533.6607296130544	866.7439328371926	0.0	529.4674110632675	893.1923682547084	0.0	542.1110144362726	891.0256952070861	0.0	530.140476956413	877.7848765812573	0.0	528.5642791311368	595.6485067757103	0.0	534.6067191575337	557.3010914161758	0.0	532.6495420511176	601.6055149000018	0.0	483.8029480928381	593.9078560859676	0.0	468.7110714474914	659.8411909078087	0.0	468.96646343574685	712.2464660328574	0.0	575.2715311021472	591.695668428259	0.0	589.8325267142361	653.4418518986314	0.0	590.8201867078503	706.5419520977862	0.0
265	8.837613049095605	529.6380768475843	698.1639852022595	0.0	505.48113862262926	698.5932797930936	0.0	506.47002985065916	782.3934529798729	0.0	508.7539727963574	844.906311379451	0.0	504.1093616316674	880.61258466711	0.0	492.668806919513	875.2777328251689	0.0	511.58754965235283	852.8632610372503	0.0	551.2744925912032	698.022959965187	0.0	541.996389752176	787.2238794715616	0.0	533.4201693653056	866.2350763387424	0.0	529.0828104817805	893.3675182092081	0.0	541.5850459849344	891.2266082186671	0.0	530.1902883886414	876.8515758530123	0.0	528.7292573265601	595.7052377768821	0.0	533.2050782744735	556.2046436400533	0.0	532.6180599472897	602.7031576615238	0.0	483.4378703523223	595.2789149951693	0.0	468.79640778082756	661.149409154979	0.0	467.7907463831018	713.3711778676749	0.0	575.7176510142106	593.1748839539788	0.0	591.3813697930028	653.0340899443235	0.0	593.8233984299841	706.3743843935457	0.0
266	8.87096253229974	529.3386245924471	699.6957976983286	0.0	504.91646955361597	699.9720075109979	0.0	506.27741707125966	784.6341758507278	0.0	507.1797695095747	856.252871162448	0.0	503.4898570307422	890.0107091149256	0.0	491.5241099554159	885.1485008001109	0.0	509.976681679544	866.7090939471417	0.0	551.2576128105835	699.6886106323498	0.0	541.7883054984849	789.1636230934957	0.0	532.7850630727327	866.1646254301787	0.0	528.8238563860142	893.3974548392727	0.0	541.1220229144285	891.1087781946642	0.0	529.6897121775529	876.4852873846667	0.0	529.0148630257817	596.3144979172253	0.0	532.6492454304704	556.1359584222693	0.0	532.9474092591781	603.8857553080778	0.0	483.2908288995379	596.3684546223493	0.0	468.70753297794033	662.4765234649542	0.0	466.78725511984334	714.2339226582683	0.0	576.0431720203151	594.5658621939428	0.0	592.5391020458823	653.0899052373752	0.0	596.5016365876006	706.2084063416786	0.0
267	8.904312015503875	528.3944349942602	700.9425682608438	0.0	503.9334436207526	701.1310579375431	0.0	505.7271190053304	787.4541910688279	0.0	505.8195050626105	866.8445315209083	0.0	502.05915076589986	899.2918259078206	0.0	489.93898323455016	894.7904381709143	0.0	508.2731386067978	879.2105170979086	0.0	551.0833228369697	701.3907391386726	0.0	541.230822072919	791.1227702166244	0.0	532.1238287188448	866.4066114004681	0.0	528.8254004915872	893.776820862482	0.0	540.9935173765685	891.2906202971851	0.0	529.1431696179693	876.954351726294	0.0	529.0209001841639	597.5931643158751	0.0	532.6616505177137	557.0512229183631	0.0	533.0068818000174	603.9038569226	0.0	482.9133031648063	597.5220513743246	0.0	468.3205128692662	663.9573441776733	0.0	465.85029707055696	715.2834954979373	0.0	576.2110124833015	595.7239359356961	0.0	593.3546085758829	653.2520235567603	0.0	598.5857806286187	705.8636567955817	0.0
